Normalized EMG Linear Envelopes
nRows=252
nColumns=4

endheader
time	 med_gas_r	  soleus_r	 tib_ant_r	
3.45968	  0.007091	  0.006867	  0.005408	
3.49294	  0.007376	  0.007010	  0.005735	
3.52621	  0.007621	  0.007137	  0.006073	
3.55948	  0.007811	  0.007236	  0.006407	
3.59274	  0.007932	  0.007291	  0.006718	
3.62601	  0.007981	  0.007299	  0.007009	
3.65927	  0.007976	  0.007268	  0.007296	
3.69254	  0.007965	  0.007223	  0.007591	
3.72581	  0.008013	  0.007195	  0.007876	
3.75907	  0.008170	  0.007207	  0.008119	
3.79234	  0.008446	  0.007270	  0.008279	
3.8256	  0.008793	  0.007369	  0.008331	
3.85887	  0.009132	  0.007475	  0.008283	
3.89214	  0.009397	  0.007555	  0.008169	
3.9254	  0.009567	  0.007594	  0.008037	
3.95867	  0.009667	  0.007592	  0.007906	
3.99194	  0.009747	  0.007575	  0.007768	
4.0252	  0.009838	  0.007576	  0.007604	
4.05847	  0.009940	  0.007633	  0.007416	
4.09173	  0.010022	  0.007775	  0.007238	
4.125	  0.010048	  0.008008	  0.007112	
4.15827	  0.009994	  0.008304	  0.007068	
4.19153	  0.009864	  0.008603	  0.007106	
4.2248	  0.009683	  0.008838	  0.007201	
4.25806	  0.009488	  0.008958	  0.007316	
4.29133	  0.009310	  0.008951	  0.007413	
4.3246	  0.009163	  0.008837	  0.007470	
4.35786	  0.009045	  0.008644	  0.007476	
4.39113	  0.008941	  0.008394	  0.007433	
4.4244	  0.008836	  0.008104	  0.007354	
4.45766	  0.008715	  0.007801	  0.007276	
4.49093	  0.008561	  0.007533	  0.007246	
4.52419	  0.008361	  0.007350	  0.007306	
4.55746	  0.008117	  0.007286	  0.007470	
4.59073	  0.007853	  0.007338	  0.007719	
4.62399	  0.007614	  0.007471	  0.008000	
4.65726	  0.007449	  0.007630	  0.008241	
4.69052	  0.007390	  0.007761	  0.008366	
4.72379	  0.007445	  0.007821	  0.008319	
4.75706	  0.007588	  0.007787	  0.008062	
4.79032	  0.007773	  0.007656	  0.007559	
4.82359	  0.007946	  0.007448	  0.006763	
4.85685	  0.008076	  0.007197	  0.005649	
4.89012	  0.008164	  0.006942	  0.004276	
4.92339	  0.008249	  0.006721	  0.002852	
4.95665	  0.008388	  0.006581	  0.001773	
4.98992	  0.008653	  0.006597	  0.001635	
5.02319	  0.009129	  0.006900	  0.003222	
5.05645	  0.009927	  0.007691	  0.007496	
5.08972	  0.011157	  0.009212	  0.015590	
5.12298	  0.012872	  0.011707	  0.028728	
5.15625	  0.014996	  0.015346	  0.047975	
5.18952	  0.017307	  0.020135	  0.073777	
5.22278	  0.019500	  0.025828	  0.105452	
5.25605	  0.021306	  0.031908	  0.140987	
5.28931	  0.022584	  0.037684	  0.177421	
5.32258	  0.023351	  0.042508	  0.211722	
5.35585	  0.023758	  0.046011	  0.241706	
5.38911	  0.024049	  0.048237	  0.266577	
5.42238	  0.024528	  0.049609	  0.286968	
5.45565	  0.025485	  0.050757	  0.304660	
5.48891	  0.027122	  0.052315	  0.322100	
5.52218	  0.029472	  0.054736	  0.341714	
5.55544	  0.032365	  0.058171	  0.365054	
5.58871	  0.035442	  0.062421	  0.392080	
5.62198	  0.038241	  0.066995	  0.421060	
5.65524	  0.040329	  0.071280	  0.449317	
5.68851	  0.041453	  0.074777	  0.474474	
5.72177	  0.041656	  0.077334	  0.495405	
5.75504	  0.041288	  0.079276	  0.512243	
5.78831	  0.040894	  0.081367	  0.525633	
5.82157	  0.041029	  0.084599	  0.535985	
5.85484	  0.042075	  0.089886	  0.543323	
5.8881	  0.044138	  0.097785	  0.547646	
5.92137	  0.047084	  0.108378	  0.549302	
5.95464	  0.050690	  0.121372	  0.549082	
5.9879	  0.054776	  0.136302	  0.548124	
6.02117	  0.059226	  0.152608	  0.547765	
6.05444	  0.063875	  0.169525	  0.549284	
6.0877	  0.068400	  0.185928	  0.553393	
6.12097	  0.072372	  0.200438	  0.559686	
6.15423	  0.075430	  0.211792	  0.566520	
6.1875	  0.077399	  0.219183	  0.571652	
6.22077	  0.078271	  0.222332	  0.573375	
6.25403	  0.078105	  0.221383	  0.571453	
6.2873	  0.077008	  0.216889	  0.567171	
6.32056	  0.075228	  0.209898	  0.562537	
6.35383	  0.073195	  0.201868	  0.559336	
6.3871	  0.071407	  0.194248	  0.558798	
6.42036	  0.070204	  0.187926	  0.561826	
6.45363	  0.069585	  0.182904	  0.568907	
6.4869	  0.069209	  0.178445	  0.579288	
6.52016	  0.068602	  0.173563	  0.590204	
6.55343	  0.067397	  0.167547	  0.597478	
6.58669	  0.065465	  0.160226	  0.597616	
6.61996	  0.062887	  0.151963	  0.589830	
6.65323	  0.059860	  0.143522	  0.576305	
6.68649	  0.056620	  0.135948	  0.560602	
6.71976	  0.053433	  0.130428	  0.545658	
6.75302	  0.050618	  0.128097	  0.532864	
6.78629	  0.048557	  0.129798	  0.522472	
6.81956	  0.047659	  0.135888	  0.514542	
6.85282	  0.048244	  0.146179	  0.509572	
6.88609	  0.050397	  0.160008	  0.508431	
6.91935	  0.053884	  0.176320	  0.511739	
6.95262	  0.058176	  0.193672	  0.519126	
6.98589	  0.062580	  0.210268	  0.528955	
7.01915	  0.066455	  0.224257	  0.538915	
7.05242	  0.069438	  0.234372	  0.547228	
7.08569	  0.071583	  0.240454	  0.553596	
7.11895	  0.073232	  0.243286	  0.558957	
7.15222	  0.074645	  0.243676	  0.564164	
7.18548	  0.075667	  0.241619	  0.568749	
7.21875	  0.075746	  0.236402	  0.571013	
7.25202	  0.074338	  0.227604	  0.569427	
7.28528	  0.071345	  0.215931	  0.564042	
7.31855	  0.067216	  0.203051	  0.556614	
7.35181	  0.062698	  0.190651	  0.549375	
7.38508	  0.058522	  0.179705	  0.543641	
7.41835	  0.055232	  0.170508	  0.539409	
7.45161	  0.053157	  0.163143	  0.536088	
7.48488	  0.052381	  0.157747	  0.533524	
7.51815	  0.052712	  0.154356	  0.532400	
7.55141	  0.053725	  0.152652	  0.533776	
7.58468	  0.054943	  0.151989	  0.538186	
7.61794	  0.056047	  0.151736	  0.544924	
7.65121	  0.056974	  0.151675	  0.551946	
7.68448	  0.057848	  0.152170	  0.556589	
7.71774	  0.058869	  0.153993	  0.556867	
7.75101	  0.060217	  0.157912	  0.552631	
7.78427	  0.062000	  0.164233	  0.545715	
7.81754	  0.064192	  0.172506	  0.538863	
7.85081	  0.066554	  0.181590	  0.534071	
7.88407	  0.068645	  0.190075	  0.531364	
7.91734	  0.069971	  0.196846	  0.528617	
7.9506	  0.070175	  0.201376	  0.522450	
7.98387	  0.069137	  0.203500	  0.509782	
8.01714	  0.066936	  0.202933	  0.489364	
8.0504	  0.063752	  0.199108	  0.462658	
8.08367	  0.059863	  0.191662	  0.433687	
8.11694	  0.055703	  0.181203	  0.407925	
8.1502	  0.051866	  0.169621	  0.390693	
8.18347	  0.048995	  0.159570	  0.385565	
8.21673	  0.047579	  0.153441	  0.393279	
8.25	  0.047801	  0.152453	  0.411442	
8.28327	  0.049481	  0.156259	  0.435259	
8.31653	  0.052128	  0.163144	  0.459164	
8.3498	  0.055074	  0.170715	  0.478790	
8.38306	  0.057682	  0.176780	  0.492319	
8.41633	  0.059512	  0.179962	  0.500477	
8.4496	  0.060369	  0.179750	  0.505233	
8.48286	  0.060239	  0.176208	  0.508171	
8.51613	  0.059230	  0.169842	  0.509626	
8.5494	  0.057584	  0.161743	  0.508958	
8.58266	  0.055707	  0.153644	  0.505486	
8.61593	  0.054110	  0.147539	  0.499290	
8.64919	  0.053243	  0.145021	  0.491408	
8.68246	  0.053302	  0.146708	  0.483422	
8.71573	  0.054124	  0.152032	  0.476750	
8.74899	  0.055232	  0.159383	  0.472078	
8.78226	  0.056014	  0.166542	  0.469225	
8.81552	  0.055951	  0.171308	  0.467477	
8.84879	  0.054787	  0.172165	  0.466101	
8.88206	  0.052581	  0.168700	  0.464690	
8.91532	  0.049651	  0.161604	  0.463098	
8.94859	  0.046464	  0.152265	  0.461132	
8.98185	  0.043514	  0.142233	  0.458337	
9.01512	  0.041211	  0.132815	  0.454194	
9.04839	  0.039812	  0.124943	  0.448713	
9.08165	  0.039412	  0.119239	  0.442927	
9.11492	  0.039974	  0.116097	  0.438637	
9.14819	  0.041353	  0.115621	  0.437357	
9.18145	  0.043280	  0.117417	  0.439288	
9.21472	  0.045370	  0.120496	  0.443308	
9.24798	  0.047227	  0.123563	  0.447986	
9.28125	  0.048602	  0.125639	  0.452615	
9.31452	  0.049479	  0.126571	  0.457282	
9.34778	  0.049992	  0.126926	  0.462038	
9.38105	  0.050237	  0.127337	  0.466129	
9.41431	  0.050146	  0.127859	  0.468038	
9.44758	  0.049538	  0.127844	  0.466176	
9.48085	  0.048279	  0.126400	  0.459498	
9.51411	  0.046419	  0.122986	  0.447637	
9.54738	  0.044209	  0.117733	  0.430804	
9.58065	  0.042004	  0.111365	  0.409900	
9.61391	  0.040131	  0.104886	  0.386825	
9.64718	  0.038801	  0.099245	  0.364483	
9.68044	  0.038080	  0.095080	  0.346004	
9.71371	  0.037893	  0.092577	  0.333382	
9.74698	  0.038034	  0.091473	  0.326518	
9.78024	  0.038211	  0.091231	  0.323638	
9.81351	  0.038143	  0.091347	  0.322968	
9.84677	  0.037682	  0.091623	  0.324271	
9.88004	  0.036862	  0.092231	  0.328820	
9.91331	  0.035851	  0.093519	  0.337849	
9.94657	  0.034858	  0.095689	  0.351032	
9.97984	  0.034083	  0.098575	  0.366397	
10.0131	  0.033713	  0.101650	  0.381561	
10.0464	  0.033941	  0.104305	  0.395028	
10.0796	  0.034942	  0.106258	  0.406618	
10.1129	  0.036806	  0.107877	  0.417176	
10.1462	  0.039491	  0.110250	  0.428141	
10.1794	  0.042851	  0.114871	  0.441061	
10.2127	  0.046737	  0.123077	  0.456853	
10.246	  0.051086	  0.135469	  0.475037	
10.2792	  0.055895	  0.151573	  0.493688	
10.3125	  0.061090	  0.169942	  0.510478	
10.3458	  0.066436	  0.188707	  0.524120	
10.379	  0.071616	  0.206374	  0.535059	
10.4123	  0.076393	  0.222364	  0.544865	
10.4456	  0.080671	  0.236869	  0.555008	
10.4788	  0.084389	  0.250160	  0.566064	
10.5121	  0.087405	  0.261975	  0.577693	
10.5454	  0.089517	  0.271554	  0.588896	
10.5786	  0.090612	  0.278157	  0.598105	
10.6119	  0.090731	  0.281503	  0.603395	
10.6452	  0.089994	  0.281771	  0.603202	
10.6784	  0.088485	  0.279313	  0.597180	
10.7117	  0.086233	  0.274426	  0.586364	
10.745	  0.083305	  0.267324	  0.572443	
10.7782	  0.079867	  0.258186	  0.556870	
10.8115	  0.076144	  0.247168	  0.540504	
10.8448	  0.072320	  0.234465	  0.523776	
10.878	  0.068527	  0.220548	  0.507010	
10.9113	  0.064972	  0.206544	  0.490752	
10.9446	  0.062054	  0.194346	  0.476054	
10.9778	  0.060291	  0.186061	  0.464393	
11.0111	  0.060019	  0.182865	  0.457020	
11.0444	  0.061084	  0.183980	  0.454116	
11.0776	  0.062783	  0.186639	  0.454485	
11.1109	  0.064121	  0.187288	  0.456054	
11.1442	  0.064216	  0.183338	  0.456698	
11.1774	  0.062618	  0.174307	  0.454834	
11.2107	  0.059413	  0.161704	  0.449704	
11.244	  0.055131	  0.148017	  0.441580	
11.2772	  0.050544	  0.135612	  0.431777	
11.3105	  0.046412	  0.126103	  0.422194	
11.3437	  0.043281	  0.120234	  0.414479	
11.377	  0.041396	  0.118031	  0.409331	
11.4103	  0.040710	  0.119000	  0.406347	
11.4435	  0.040924	  0.122168	  0.404218	
11.4768	  0.041526	  0.125981	  0.400923	
11.5101	  0.041879	  0.128383	  0.393977	
11.5433	  0.041406	  0.127382	  0.381068	
11.5766	  0.039794	  0.121894	  0.361015	
11.6099	  0.037079	  0.112245	  0.334373	
11.6431	  0.033561	  0.099862	  0.303145	
11.6764	  0.029632	  0.086452	  0.269796	
11.7097	  0.025641	  0.073306	  0.236339	
11.7429	  0.021837	  0.061131	  0.204059	
11.7762	  0.018376	  0.050248	  0.173787	
11.8095	  0.015339	  0.040843	  0.146314	
